<svg width="314" height="342" viewBox="0 0 314 342" fill="none" xmlns="http://www.w3.org/2000/svg">
<path d="M265.121 248.63C215.088 282.564 145.782 269.502 111.014 220.087C76.2519 170.664 87.3859 101.019 136.234 65.3999C137.761 64.2876 138.878 62.7026 139.411 60.8907C139.945 59.0788 139.866 57.1414 139.187 55.3789C138.509 53.6162 137.269 52.1264 135.658 51.1405C134.047 50.1546 132.156 49.7277 130.278 49.9259C105.66 52.5527 82.1144 61.3999 61.8579 75.6349C-3.93007 121.904 -19.4701 213.536 26.8009 279.322C73.0729 345.107 164.564 361.447 230.351 315.17C250.562 300.957 266.912 281.699 277.671 259.465C278.493 257.764 278.73 255.839 278.346 253.99C277.961 252.14 276.976 250.47 275.544 249.238C274.116 248.003 272.32 247.275 270.436 247.165C268.551 247.055 266.683 247.57 265.121 248.63ZM240.232 30.0959C240.232 30.9628 240.062 31.8211 239.73 32.622C239.398 33.4228 238.912 34.1504 238.299 34.763C237.686 35.3757 236.958 35.8614 236.156 36.1924C235.355 36.5234 234.497 36.6931 233.63 36.6919H217.21V53.1169C217.209 54.8674 216.513 56.5459 215.275 57.7833C214.037 59.0208 212.358 59.716 210.608 59.716C209.741 59.7169 208.882 59.5468 208.081 59.2156C207.28 58.8843 206.552 58.3983 205.939 57.7854C205.325 57.1725 204.839 56.4447 204.507 55.6436C204.176 54.8425 204.005 53.9839 204.006 53.1169V36.6909H187.582C185.833 36.6907 184.155 35.9956 182.919 34.7587C181.682 33.5217 180.987 31.8441 180.987 30.0949C180.987 28.268 181.72 26.6189 182.918 25.4249C184.116 24.2309 185.764 23.4909 187.582 23.4909H204.006V7.06995C204.006 6.20314 204.177 5.34485 204.509 4.54408C204.841 3.74332 205.327 3.01577 205.94 2.40298C206.553 1.7902 207.281 1.30417 208.082 0.972673C208.883 0.641172 209.741 0.470686 210.608 0.470948C211.475 0.470423 212.333 0.640729 213.134 0.972137C213.935 1.30354 214.663 1.78956 215.276 2.4024C215.889 3.01524 216.376 3.74289 216.708 4.54377C217.039 5.34465 217.21 6.20307 217.21 7.06995V23.4919H233.63C234.497 23.4917 235.356 23.6623 236.157 23.9942C236.958 24.326 237.686 24.8124 238.3 25.4257C238.913 26.0391 239.399 26.7672 239.73 27.5685C240.062 28.3699 240.232 29.2287 240.232 30.0959Z" fill="#7A7878"/>
<path d="M216.541 134.072C216.541 135.892 215.801 137.545 214.603 138.742C213.991 139.354 213.264 139.84 212.463 140.17C211.663 140.501 210.805 140.669 209.939 140.667H193.521V157.095C193.521 160.738 190.562 163.69 186.914 163.69C186.047 163.692 185.189 163.523 184.388 163.192C183.587 162.86 182.86 162.373 182.248 161.759C181.636 161.147 181.15 160.419 180.819 159.619C180.487 158.819 180.317 157.961 180.318 157.095V140.667H163.893C163.027 140.668 162.169 140.497 161.369 140.166C160.568 139.835 159.841 139.349 159.228 138.737C158.616 138.124 158.13 137.397 157.799 136.597C157.468 135.796 157.297 134.938 157.298 134.072C157.296 133.205 157.465 132.346 157.797 131.545C158.128 130.744 158.614 130.016 159.228 129.404C159.84 128.79 160.567 128.303 161.367 127.971C162.168 127.639 163.026 127.469 163.893 127.47H180.318V111.048C180.318 109.743 180.705 108.466 181.43 107.381C182.155 106.295 183.186 105.449 184.392 104.95C185.598 104.45 186.925 104.319 188.205 104.574C189.485 104.829 190.661 105.458 191.584 106.381C192.199 106.993 192.687 107.72 193.019 108.521C193.352 109.322 193.523 110.181 193.522 111.048V127.47H209.94C211.691 127.471 213.369 128.167 214.607 129.405C215.845 130.643 216.54 132.321 216.541 134.072ZM313.818 104.45C313.818 106.272 313.078 107.924 311.88 109.117C311.268 109.73 310.541 110.216 309.741 110.548C308.94 110.879 308.082 111.05 307.216 111.049H290.79V127.474C290.789 129.224 290.094 130.902 288.856 132.139C287.618 133.376 285.94 134.07 284.19 134.07C283.323 134.073 282.464 133.903 281.663 133.572C280.862 133.24 280.135 132.753 279.524 132.138C278.91 131.527 278.422 130.8 278.09 130C277.758 129.199 277.587 128.341 277.588 127.474V111.049H261.168C259.862 111.05 258.585 110.664 257.499 109.939C256.413 109.215 255.566 108.184 255.066 106.978C254.566 105.771 254.435 104.444 254.69 103.163C254.945 101.882 255.574 100.706 256.498 99.783C257.111 99.1692 257.839 98.6824 258.64 98.3505C259.442 98.0186 260.301 97.8482 261.168 97.849H277.588V81.43C277.588 80.5631 277.759 79.7048 278.091 78.9039C278.423 78.1031 278.909 77.3754 279.522 76.7625C280.135 76.1496 280.863 75.6634 281.663 75.3317C282.464 75.0001 283.323 74.8294 284.19 74.8295C285.056 74.8295 285.915 75.0003 286.716 75.3321C287.516 75.6639 288.244 76.1502 288.857 76.7632C289.47 77.3762 289.956 78.1039 290.288 78.9048C290.619 79.7057 290.79 80.5641 290.79 81.431V97.85H307.216C308.083 97.8498 308.941 98.0204 309.742 98.3521C310.543 98.6837 311.271 99.1698 311.884 99.7827C312.497 100.396 312.983 101.123 313.315 101.924C313.647 102.725 313.818 103.583 313.818 104.45Z" fill="#7A7878"/>
</svg>
