<svg width="428" height="428" viewBox="0 0 428 428" fill="none" xmlns="http://www.w3.org/2000/svg">
<path d="M64.6667 214C64.6667 208.342 62.4191 202.916 58.4184 198.915C54.4176 194.914 48.9914 192.667 43.3334 192.667H22.0001C16.3421 192.667 10.9159 194.914 6.91514 198.915C2.91436 202.916 0.666748 208.342 0.666748 214C0.666748 219.658 2.91436 225.084 6.91514 229.085C10.9159 233.086 16.3421 235.333 22.0001 235.333H43.3334C48.9914 235.333 54.4176 233.086 58.4184 229.085C62.4191 225.084 64.6667 219.658 64.6667 214ZM78.3201 320.667L63.1734 335.813C59.2001 339.81 56.9698 345.217 56.9698 350.853C56.9698 356.489 59.2001 361.896 63.1734 365.893C67.1705 369.867 72.5775 372.097 78.2134 372.097C83.8494 372.097 89.2563 369.867 93.2534 365.893L108.4 350.747C111.895 346.665 113.721 341.416 113.514 336.047C113.307 330.678 111.081 325.585 107.281 321.785C103.482 317.986 98.389 315.76 93.0199 315.553C87.6508 315.345 82.4012 317.172 78.3201 320.667ZM214 64.6666C219.658 64.6666 225.084 62.419 229.085 58.4182C233.086 54.4175 235.333 48.9912 235.333 43.3333V22C235.333 16.342 233.086 10.9158 229.085 6.91501C225.084 2.91424 219.658 0.666626 214 0.666626C208.342 0.666626 202.916 2.91424 198.915 6.91501C194.914 10.9158 192.667 16.342 192.667 22V43.3333C192.667 48.9912 194.914 54.4175 198.915 58.4182C202.916 62.419 208.342 64.6666 214 64.6666ZM334.747 114.587C340.343 114.563 345.707 112.341 349.68 108.4L364.827 93.2533C367.06 91.3408 368.874 88.9874 370.154 86.3407C371.435 83.6939 372.154 80.8111 372.268 77.8731C372.381 74.9351 371.886 72.0053 370.814 69.2677C369.741 66.5301 368.114 64.0438 366.035 61.9647C363.956 59.8857 361.47 58.2589 358.732 57.1864C355.995 56.1138 353.065 55.6188 350.127 55.7323C347.189 55.8457 344.306 56.5653 341.659 57.8458C339.013 59.1263 336.659 60.9401 334.747 63.1733L320.667 78.32C316.693 82.317 314.463 87.724 314.463 93.3599C314.463 98.9959 316.693 104.403 320.667 108.4C324.428 112.141 329.447 114.347 334.747 114.587ZM78.7467 108.4C82.7203 112.341 88.0835 114.563 93.6801 114.587C96.4877 114.603 99.2709 114.065 101.87 113.003C104.469 111.941 106.833 110.377 108.827 108.4C112.8 104.403 115.03 98.9959 115.03 93.3599C115.03 87.724 112.8 82.317 108.827 78.32L93.6801 63.1733C91.705 61.1702 89.3547 59.5757 86.7634 58.4809C84.1721 57.3862 81.3906 56.8125 78.5776 56.7927C75.7646 56.7729 72.9752 57.3073 70.3688 58.3655C67.7623 59.4237 65.3898 60.9849 63.3867 62.96C61.3836 64.935 59.7892 67.2853 58.6944 69.8766C57.5996 72.4679 57.0259 75.2494 57.0061 78.0624C56.9661 83.7435 59.1846 89.2079 63.1734 93.2533L78.7467 108.4ZM406 192.667H384.667C379.009 192.667 373.583 194.914 369.582 198.915C365.581 202.916 363.333 208.342 363.333 214C363.333 219.658 365.581 225.084 369.582 229.085C373.583 233.086 379.009 235.333 384.667 235.333H406C411.658 235.333 417.084 233.086 421.085 229.085C425.086 225.084 427.333 219.658 427.333 214C427.333 208.342 425.086 202.916 421.085 198.915C417.084 194.914 411.658 192.667 406 192.667ZM349.68 320.667C345.627 318.412 340.95 317.54 336.357 318.182C331.763 318.824 327.505 320.946 324.225 324.225C320.946 327.504 318.824 331.763 318.182 336.356C317.54 340.95 318.412 345.627 320.667 349.68L335.813 364.827C339.81 368.8 345.217 371.03 350.853 371.03C356.489 371.03 361.896 368.8 365.893 364.827C369.867 360.83 372.097 355.423 372.097 349.787C372.097 344.151 369.867 338.744 365.893 334.747L349.68 320.667ZM214 96.6666C190.794 96.6666 168.109 103.548 148.813 116.441C129.518 129.334 114.479 147.659 105.598 169.098C96.7175 190.538 94.3939 214.13 98.9213 236.891C103.449 259.651 114.624 280.558 131.033 296.967C147.442 313.376 168.349 324.551 191.109 329.079C213.87 333.606 237.462 331.282 258.902 322.402C280.341 313.521 298.666 298.482 311.559 279.187C324.452 259.891 331.333 237.206 331.333 214C331.277 182.899 318.897 153.087 296.905 131.095C274.913 109.103 245.101 96.723 214 96.6666ZM214 288.667C199.232 288.667 184.796 284.287 172.517 276.083C160.239 267.879 150.668 256.217 145.017 242.574C139.366 228.93 137.887 213.917 140.768 199.433C143.649 184.949 150.76 171.645 161.203 161.203C171.645 150.76 184.949 143.649 199.433 140.768C213.917 137.887 228.93 139.366 242.574 145.017C256.217 150.668 267.879 160.238 276.083 172.517C284.288 184.796 288.667 199.232 288.667 214C288.667 233.803 280.8 252.795 266.797 266.797C252.795 280.8 233.803 288.667 214 288.667ZM214 363.333C208.342 363.333 202.916 365.581 198.915 369.582C194.914 373.582 192.667 379.009 192.667 384.667V406C192.667 411.658 194.914 417.084 198.915 421.085C202.916 425.086 208.342 427.333 214 427.333C219.658 427.333 225.084 425.086 229.085 421.085C233.086 417.084 235.333 411.658 235.333 406V384.667C235.333 379.009 233.086 373.582 229.085 369.582C225.084 365.581 219.658 363.333 214 363.333Z" fill="#EBA02F"/>
</svg>
